<?xml version="1.0" encoding="utf-8"?>
<!-- Generator: Adobe Illustrator 16.0.0, SVG Export Plug-In . SVG Version: 6.00 Build 0)  -->
<!DOCTYPE svg PUBLIC "-//W3C//DTD SVG 1.1//EN" "http://www.w3.org/Graphics/SVG/1.1/DTD/svg11.dtd">
<svg version="1.1" xmlns="http://www.w3.org/2000/svg" xmlns:xlink="http://www.w3.org/1999/xlink" x="0px" y="0px" width="900px"
	 height="500px" viewBox="0 0 900 500" enable-background="new 0 0 900 500" xml:space="preserve">
<g id="Layer_2">
</g>
<g id="Layer_1">
	<path fill-rule="evenodd" clip-rule="evenodd" fill="#ED1C24" d="M113.261,34.278L98.114,19.129c-3.539-3.538-9.276-3.539-12.815,0
		L63.317,41.11L41.429,19.223c-3.538-3.54-9.276-3.54-12.815,0L13.465,34.371c-3.538,3.539-3.538,9.276,0,12.815L57.001,90.72
		c3.539,3.539,9.276,3.539,12.815,0l15.148-15.147c0.311-0.311,0.56-0.657,0.816-1l27.48-27.481
		C116.8,43.553,116.8,37.816,113.261,34.278z"/>
	<path fill-rule="evenodd" clip-rule="evenodd" fill="#EF3938" d="M99.16,447.654l-21.982-21.982l21.887-21.889
		c3.541-3.539,3.541-9.275,0-12.814L83.917,375.82c-3.538-3.539-9.275-3.539-12.814,0l-43.535,43.535
		c-3.539,3.539-3.539,9.277,0,12.814l15.147,15.148c0.31,0.309,0.656,0.557,0.996,0.814l27.484,27.484
		c3.541,3.537,9.276,3.537,12.815,0l15.149-15.148C102.697,456.928,102.697,451.191,99.16,447.654z"/>
	<path fill-rule="evenodd" clip-rule="evenodd" fill="#EF3938" d="M807.954,423.543c0.312-0.312,0.563-0.66,0.82-1.004
		l27.478-27.478c3.538-3.538,3.538-9.274,0-12.813L821.104,367.1c-3.54-3.539-9.276-3.54-12.815,0l-21.981,21.98l-21.889-21.889
		c-3.537-3.538-9.277-3.538-12.814,0l-15.149,15.148c-3.538,3.54-3.538,9.276,0,12.816l43.537,43.534
		c0.113,0.114,0.248,0.194,0.367,0.302l14.704,14.701c0.003,0.004,0.006,0.006,0.009,0.008l7.335,7.337l-10.109,10.11
		c-1.143,1.141-1.452,2.684-0.692,3.445l3.256,3.254c0.76,0.761,2.303,0.451,3.445-0.692l14.058-14.058
		c1.142-1.143,1.451-2.686,0.691-3.445l-3.255-3.256c-0.021-0.021-0.046-0.031-0.069-0.052l-12.433-12.433
		c-0.003-0.002-0.003-0.004-0.006-0.005l-4.888-4.89c0.13-0.116,0.275-0.201,0.4-0.327L807.954,423.543z M764.293,381.723
		l-13.702,13.703c-1.114,1.113-2.922,1.113-4.033,0l-4.769-4.768c-1.115-1.113-1.115-2.921,0-4.034l13.702-13.704
		c1.114-1.113,2.919-1.113,4.033,0l4.769,4.77C765.408,378.803,765.408,380.609,764.293,381.723z"/>
	<path fill-rule="evenodd" clip-rule="evenodd" fill="#EF3938" d="M63.697,252.992l0.057-0.057l0.057,0.057h52.423
		c-0.067-2.227-0.928-4.433-2.627-6.132l-43.535-43.534c-3.539-3.539-9.277-3.539-12.815,0l-15.148,15.148
		c-0.309,0.309-0.557,0.654-0.813,0.995L13.81,246.954c-1.675,1.675-2.529,3.845-2.618,6.038H63.697z"/>
	<path fill-rule="evenodd" clip-rule="evenodd" fill="#EF3938" d="M299.06,268.628l5.933,5.932c3.537,3.537,9.275,3.537,12.814,0
		l15.147-15.148c0.311-0.311,0.559-0.656,0.815-0.996l27.484-27.482c3.537-3.54,3.537-9.275,0-12.815l-15.148-15.147
		c-3.541-3.541-9.276-3.541-12.815-0.002l-21.982,21.982l-21.889-21.887c-3.537-3.541-9.276-3.541-12.814,0l-15.149,15.149
		c-3.538,3.537-3.538,9.273,0,12.812l25.92,25.921"/>
	<path fill-rule="evenodd" clip-rule="evenodd" fill="#EF3938" d="M600.937,218.476l-15.147-15.149
		c-3.54-3.539-9.276-3.539-12.815-0.001l-21.981,21.983l-21.889-21.889c-3.537-3.54-9.276-3.54-12.814,0l-15.148,15.149
		c-3.538,3.537-3.538,9.275,0,12.812l43.536,43.537c3.537,3.537,9.275,3.537,12.814,0l15.147-15.15
		c0.311-0.311,0.559-0.654,0.814-0.996l27.483-27.482C604.475,227.75,604.475,222.015,600.937,218.476z M547.65,236.703
		l10.521-10.519 M541.599,242.755l1.927-1.925 M574.717,209.744c2.883-2.352,6.828-2.485,9.165-0.148l10.783,10.787
		c2.521,2.518,2.202,6.918-0.708,9.832l-35.802,35.801c-2.911,2.91-7.312,3.227-9.831,0.709l-10.785-10.785
		c-2.289-2.291-2.212-6.121,0.002-8.989 M568.261,216.095l2.275-2.275 M562.296,222.058l1.838-1.837"/>
	<polygon fill-rule="evenodd" clip-rule="evenodd" fill="#EF3938" points="812.912,251.859 808.636,247.585 813.142,243.081 
		817.414,247.357 821.738,243.035 817.53,238.827 822.032,234.325 826.24,238.531 830.359,234.41 826.017,230.07 830.521,225.567 
		834.864,229.908 838.827,225.942 807.197,194.312 780.874,220.636 754.551,194.312 750.591,198.271 754.813,202.494 
		750.309,206.997 746.089,202.774 741.359,207.501 745.696,211.836 741.191,216.338 736.857,212.003 732.199,216.663 
		736.355,220.818 731.851,225.32 727.694,221.165 722.92,225.942 749.243,252.268 749.209,252.301 780.84,283.932 780.874,283.898 
		780.907,283.932 785.395,279.447 781.018,275.072 785.52,270.57 789.896,274.943 794.555,270.285 790.358,266.088 794.86,261.588 
		799.06,265.781 803.785,261.055 799.476,256.746 803.978,252.244 808.287,256.553 812.538,252.301 812.504,252.268 	"/>
	<path fill-rule="evenodd" clip-rule="evenodd" fill="#EF3938" d="M564.661,421.303l22.25-21.521
		c3.6-3.478,3.694-9.216,0.215-12.812l-14.894-15.399c-3.479-3.597-9.216-3.693-12.811-0.214l-44.258,42.802
		c-3.599,3.479-3.694,9.215-0.214,12.812l14.893,15.4c0.305,0.314,0.646,0.568,0.982,0.83l27.02,27.938
		c3.48,3.598,9.215,3.693,12.813,0.215l15.399-14.893c3.597-3.479,3.693-9.215,0.214-12.812L564.661,421.303z M561.46,405.85
		l-8.76-8.758c-3.232-3.232-3.23-8.477,0.002-11.707l7.257-7.26c3.234-3.232,8.475-3.232,11.707,0l8.759,8.758
		c3.231,3.23,3.231,8.473,0,11.705l-7.262,7.262C569.931,409.08,564.692,409.08,561.46,405.85z"/>
	<path fill-rule="evenodd" clip-rule="evenodd" fill="#ED1C24" d="M794.497,69.166l22.25-21.521
		c3.599-3.478,3.693-9.215,0.215-12.812l-14.894-15.399c-3.479-3.597-9.216-3.693-12.812-0.214l-44.258,42.802
		c-3.599,3.479-3.693,9.215-0.214,12.812l14.894,15.4c0.306,0.315,0.646,0.568,0.982,0.83l27.019,27.939
		c3.482,3.597,9.216,3.693,12.814,0.214l15.398-14.892c3.599-3.479,3.693-9.215,0.215-12.814L794.497,69.166z M769.298,58.802
		l-1.712,1.712c-0.763,0.763-1.997,0.763-2.759,0l-2.066-2.064c-0.761-0.762-0.761-1.998,0.002-2.761l1.709-1.71
		c0.763-0.763,2-0.763,2.761,0l2.065,2.064C770.06,56.805,770.06,58.041,769.298,58.802z"/>
	<path fill-rule="evenodd" clip-rule="evenodd" fill="#ED1C24" d="M351.198,87.211c0-0.036,0.006-0.069,0.006-0.105l-0.002-61.567
		c0.001-5.006-4.056-9.062-9.06-9.062l-21.423-0.001c-0.439,0-0.86,0.069-1.284,0.129h-38.864c-5.005,0-9.061,4.058-9.062,9.062
		v0.17c-0.001,0.036-0.005,0.071-0.005,0.106l0.001,61.567c0,0.798,0.113,1.568,0.307,2.306c0.106,1.589,0.734,3.15,1.95,4.366
		l32.812,32.811c2.667,2.668,6.991,2.668,9.659,0l11.417-11.417c0.233-0.233,0.42-0.493,0.612-0.75l20.716-20.715
		c1.262-1.263,1.906-2.897,1.973-4.55h-0.028c0.173-0.699,0.274-1.427,0.274-2.179V87.211z M311.657,56.897h-0.606v-0.747h0.606
		V56.897z"/>
	<path fill="#ED1C24" d="M507.061,56.742l-6.016,6.015c-3.539,3.54-3.538,9.276,0,12.815l0.156,0.157
		c0.014,0.014,0.021,0.029,0.035,0.042l43.535,43.535c3.539,3.539,9.276,3.539,12.815,0l15.148-15.148
		c0.312-0.311,0.56-0.657,0.816-0.999l27.48-27.481c3.539-3.54,3.539-9.276,0-12.815l-0.157-0.158
		c-0.013-0.013-0.021-0.028-0.034-0.041L557.305,19.13c-3.539-3.54-9.275-3.54-12.813,0l-8.312,8.31 M530.636,32.984l-1.294,1.293
		c-0.311,0.311-0.56,0.657-0.816,0.999l-16.031,16.031"/>
	<g>
		<g>
			<polygon fill-rule="evenodd" clip-rule="evenodd" fill="#EF3938" points="292.606,421.354 292.606,444.457 298.251,438.812 
				298.251,421.354 			"/>
		</g>
		<g>
			<polygon fill-rule="evenodd" clip-rule="evenodd" fill="#EF3938" points="303.826,433.238 309.146,427.918 309.146,421.354 
				303.826,421.354 			"/>
		</g>
		<g>
			<polygon fill-rule="evenodd" clip-rule="evenodd" fill="#EF3938" points="257.985,421.354 286.847,450.217 287.033,450.031 
				287.031,421.354 			"/>
		</g>
		<g>
			<polygon fill-rule="evenodd" clip-rule="evenodd" fill="#EF3938" points="335.676,450.031 335.86,450.217 364.723,421.354 
				335.676,421.354 			"/>
		</g>
		<g>
			<polygon fill-rule="evenodd" clip-rule="evenodd" fill="#EF3938" points="314.717,421.354 314.719,429.073 319.91,434.267 
				319.91,421.354 			"/>
		</g>
		<g>
			<polygon fill-rule="evenodd" clip-rule="evenodd" fill="#EF3938" points="325.483,421.354 325.483,439.838 330.101,444.457 
				330.101,421.354 			"/>
		</g>
	</g>
</g>
</svg>
