<?xml version="1.0" encoding="UTF-8" standalone="no"?>
<svg width="1730px" height="371px" viewBox="0 0 1730 371" version="1.1" xmlns="http://www.w3.org/2000/svg" xmlns:xlink="http://www.w3.org/1999/xlink" xmlns:sketch="http://www.bohemiancoding.com/sketch/ns">
    <!-- Generator: Sketch 3.3 (11970) - http://www.bohemiancoding.com/sketch -->
    <title>download</title>
    <desc>Created with Sketch.</desc>
    <defs></defs>
    <g id="Page-1" stroke="none" stroke-width="1" fill="none" fill-rule="evenodd" sketch:type="MSPage">
        <g id="About" sketch:type="MSArtboardGroup" transform="translate(-176.000000, -813.000000)">
            <g id="download" sketch:type="MSLayerGroup" transform="translate(177.000000, 814.000000)">
                <path d="M186,369.5 L91,367.5 L0,369.5 L186,369.5 Z" id="Shape" stroke="#505255" fill="#505255" sketch:type="MSShapeGroup"></path>
                <path d="M610,369.5 L537,367.5 L491,369.5 L610,369.5 Z" id="Shape" stroke="#555E5E" fill="#555E5E" sketch:type="MSShapeGroup"></path>
                <path d="M1138,369.5 L969,368.5 L926,369.5 L1138,369.5 Z" id="Shape" stroke="#5D6365" fill="#5D6365" sketch:type="MSShapeGroup"></path>
                <path d="M1370,369.5 L1327,362.5 L1138,369.5 L1370,369.5 Z" id="Shape" stroke="#5F5F63" fill="#5F5F63" sketch:type="MSShapeGroup"></path>
                <path d="M1728,41.5 L1605,78.5 L1679,124.5 L1728,41.5 Z" id="Shape" stroke="#645F65" fill="#645F65" sketch:type="MSShapeGroup"></path>
                <path d="M1728,369.5 L1614,289.5 L1543,308.5 L1728,369.5 Z" id="Shape" stroke="#5D5A5F" fill="#5D5A5F" sketch:type="MSShapeGroup"></path>
                <path d="M1728,369.5 L1543,308.5 L1370,369.5 L1728,369.5 Z" id="Shape" stroke="#5D5B60" fill="#5D5B60" sketch:type="MSShapeGroup"></path>
                <path d="M1728,0 L1605,78.5 L1728,41.5 L1728,0 Z" id="Shape" stroke="#666066" fill="#666066" sketch:type="MSShapeGroup"></path>
                <path d="M1728.06667,0 L1608.85652,0 L1605,78.5 L1728.06667,0 Z" id="Shape" stroke="#6B646B" fill="#6B646B" sketch:type="MSShapeGroup"></path>
                <path d="M1728,364.5 L1614,289.5 L1728,369.5 L1728,364.5 Z" id="Shape" stroke="#5B585D" fill="#5B585D" sketch:type="MSShapeGroup"></path>
                <path d="M1728,364.5 L1706,291.5 L1614,289.5 L1728,364.5 Z" id="Shape" stroke="#5C595E" fill="#5C595E" sketch:type="MSShapeGroup"></path>
                <path d="M1728,208.5 L1670,135.5 L1715,219.5 L1728,208.5 Z" id="Shape" stroke="#5F5B61" fill="#5F5B61" sketch:type="MSShapeGroup"></path>
                <path d="M1728,208.5 L1679,124.5 L1670,135.5 L1728,208.5 Z" id="Shape" stroke="#605C62" fill="#605C62" sketch:type="MSShapeGroup"></path>
                <path d="M1728,208.5 L1728,41.5 L1679,124.5 L1728,208.5 Z" id="Shape" stroke="#615C62" fill="#615C62" sketch:type="MSShapeGroup"></path>
                <path d="M1728,208.5 L1706,291.5 L1728,364.5 L1728,208.5 Z" id="Shape" stroke="#5C585E" fill="#5C585E" sketch:type="MSShapeGroup"></path>
                <path d="M1728,208.5 L1715,219.5 L1706,291.5 L1728,208.5 Z" id="Shape" stroke="#5D5A5F" fill="#5D5A5F" sketch:type="MSShapeGroup"></path>
                <path d="M1607.90401,0 L1566.77866,0 L1605,78.5 L1607.90401,0 Z" id="Shape" stroke="#766C74" fill="#766C74" sketch:type="MSShapeGroup"></path>
                <path d="M1715,219.5 L1614,289.5 L1706,291.5 L1715,219.5 Z" id="Shape" stroke="#5D5A5F" fill="#5D5A5F" sketch:type="MSShapeGroup"></path>
                <path d="M1715,219.5 L1670,135.5 L1614,289.5 L1715,219.5 Z" id="Shape" stroke="#5F5C61" fill="#5F5C61" sketch:type="MSShapeGroup"></path>
                <path d="M1670,135.5 L1530,209.5 L1614,289.5 L1670,135.5 Z" id="Shape" stroke="#625E63" fill="#625E63" sketch:type="MSShapeGroup"></path>
                <path d="M1679,124.5 L1605,78.5 L1670,135.5 L1679,124.5 Z" id="Shape" stroke="#645F65" fill="#645F65" sketch:type="MSShapeGroup"></path>
                <path d="M1670,135.5 L1605,78.5 L1530,209.5 L1670,135.5 Z" id="Shape" stroke="#656066" fill="#656066" sketch:type="MSShapeGroup"></path>
                <path d="M1543,308.5 L1443,312.5 L1370,369.5 L1543,308.5 Z" id="Shape" stroke="#605D62" fill="#605D62" sketch:type="MSShapeGroup"></path>
                <path d="M1614,289.5 L1530,209.5 L1525,237.5 L1614,289.5 Z" id="Shape" stroke="#625E64" fill="#625E64" sketch:type="MSShapeGroup"></path>
                <path d="M1605,78.5 L1565.99161,0 L1358.04588,0 L1605,78.5 Z" id="Shape" stroke="#82757F" fill="#82757F" sketch:type="MSShapeGroup"></path>
                <path d="M1614,289.5 L1525,237.5 L1549,289.5 L1614,289.5 Z" id="Shape" stroke="#605D62" fill="#605D62" sketch:type="MSShapeGroup"></path>
                <path d="M1614,289.5 L1549,289.5 L1543,308.5 L1614,289.5 Z" id="Shape" stroke="#5F5C61" fill="#5F5C61" sketch:type="MSShapeGroup"></path>
                <path d="M1605,78.5 L1346,130.5 L1530,209.5 L1605,78.5 Z" id="Shape" stroke="#6B656C" fill="#6B656C" sketch:type="MSShapeGroup"></path>
                <path d="M1605,78.5 L1356.41289,0 L1346,130.5 L1605,78.5 Z" id="Shape" stroke="#796F77" fill="#796F77" sketch:type="MSShapeGroup"></path>
                <path d="M1549,289.5 L1525,237.5 L1541,297.5 L1549,289.5 Z" id="Shape" stroke="#615D63" fill="#615D63" sketch:type="MSShapeGroup"></path>
                <path d="M1549,289.5 L1541,297.5 L1543,308.5 L1549,289.5 Z" id="Shape" stroke="#5F5C62" fill="#5F5C62" sketch:type="MSShapeGroup"></path>
                <path d="M1541,297.5 L1525,237.5 L1443,312.5 L1541,297.5 Z" id="Shape" stroke="#615E63" fill="#615E63" sketch:type="MSShapeGroup"></path>
                <path d="M1543,308.5 L1541,297.5 L1443,312.5 L1543,308.5 Z" id="Shape" stroke="#605D62" fill="#605D62" sketch:type="MSShapeGroup"></path>
                <path d="M1530,209.5 L1364,238.5 L1525,237.5 L1530,209.5 Z" id="Shape" stroke="#656167" fill="#656167" sketch:type="MSShapeGroup"></path>
                <path d="M1530,209.5 L1346,130.5 L1364,238.5 L1530,209.5 Z" id="Shape" stroke="#6A656B" fill="#6A656B" sketch:type="MSShapeGroup"></path>
                <path d="M1525,237.5 L1364,238.5 L1443,312.5 L1525,237.5 Z" id="Shape" stroke="#646066" fill="#646066" sketch:type="MSShapeGroup"></path>
                <path d="M1356.88373,0 L1291,35.5 L1346,130.5 L1356.88373,0 Z" id="Shape" stroke="#837881" fill="#837881" sketch:type="MSShapeGroup"></path>
                <path d="M1346,130.5 L1291,35.5 L1290,56.5 L1346,130.5 Z" id="Shape" stroke="#7D747C" fill="#7D747C" sketch:type="MSShapeGroup"></path>
                <path d="M1443,312.5 L1364,238.5 L1370,369.5 L1443,312.5 Z" id="Shape" stroke="#625F65" fill="#625F65" sketch:type="MSShapeGroup"></path>
                <path d="M1364,238.5 L1346,130.5 L1316,180.5 L1364,238.5 Z" id="Shape" stroke="#6C686E" fill="#6C686E" sketch:type="MSShapeGroup"></path>
                <path d="M1370,369.5 L1364,238.5 L1327,362.5 L1370,369.5 Z" id="Shape" stroke="#615F64" fill="#615F64" sketch:type="MSShapeGroup"></path>
                <path d="M1327,362.5 L1248,250.5 L1237,303.5 L1327,362.5 Z" id="Shape" stroke="#626266" fill="#626266" sketch:type="MSShapeGroup"></path>
                <path d="M1346,130.5 L1290,56.5 L1284,114.5 L1346,130.5 Z" id="Shape" stroke="#777077" fill="#777077" sketch:type="MSShapeGroup"></path>
                <path d="M1364,238.5 L1248,250.5 L1327,362.5 L1364,238.5 Z" id="Shape" stroke="#646267" fill="#646267" sketch:type="MSShapeGroup"></path>
                <path d="M1364,238.5 L1316,180.5 L1248,250.5 L1364,238.5 Z" id="Shape" stroke="#68656B" fill="#68656B" sketch:type="MSShapeGroup"></path>
                <path d="M1357.13637,0 L1267.13121,0 L1291,35.5 L1357.13637,0 Z" id="Shape" stroke="#A18E9A" fill="#A18E9A" sketch:type="MSShapeGroup"></path>
                <path d="M1346,130.5 L1284,114.5 L1316,180.5 L1346,130.5 Z" id="Shape" stroke="#716C72" fill="#716C72" sketch:type="MSShapeGroup"></path>
                <path d="M1327,362.5 L1237,303.5 L1138,369.5 L1327,362.5 Z" id="Shape" stroke="#606064" fill="#606064" sketch:type="MSShapeGroup"></path>
                <path d="M1316,180.5 L1284,114.5 L1248,250.5 L1316,180.5 Z" id="Shape" stroke="#6C696E" fill="#6C696E" sketch:type="MSShapeGroup"></path>
                <path d="M1248,250.5 L1169,112.5 L1176,238.5 L1248,250.5 Z" id="Shape" stroke="#69686D" fill="#69686D" sketch:type="MSShapeGroup"></path>
                <path d="M1284,114.5 L1169,112.5 L1248,250.5 L1284,114.5 Z" id="Shape" stroke="#6E6B70" fill="#6E6B70" sketch:type="MSShapeGroup"></path>
                <path d="M1290,56.5 L1169,112.5 L1284,114.5 L1290,56.5 Z" id="Shape" stroke="#777178" fill="#777178" sketch:type="MSShapeGroup"></path>
                <path d="M1291,35.5 L1266.49501,0 L1120,19.5 L1291,35.5 Z" id="Shape" stroke="#8A7F88" fill="#8A7F88" sketch:type="MSShapeGroup"></path>
                <path d="M1291,35.5 L1169,112.5 L1290,56.5 L1291,35.5 Z" id="Shape" stroke="#7C757C" fill="#7C757C" sketch:type="MSShapeGroup"></path>
                <path d="M1291,35.5 L1120,19.5 L1169,112.5 L1291,35.5 Z" id="Shape" stroke="#7A757B" fill="#7A757B" sketch:type="MSShapeGroup"></path>
                <path d="M1176,238.5 L1169,112.5 L1132,195.5 L1176,238.5 Z" id="Shape" stroke="#696A6E" fill="#696A6E" sketch:type="MSShapeGroup"></path>
                <path d="M1237,303.5 L1145,325.5 L1138,369.5 L1237,303.5 Z" id="Shape" stroke="#606265" fill="#606265" sketch:type="MSShapeGroup"></path>
                <path d="M1248,250.5 L1176,238.5 L1237,303.5 L1248,250.5 Z" id="Shape" stroke="#656469" fill="#656469" sketch:type="MSShapeGroup"></path>
                <path d="M1237,303.5 L1176,238.5 L1145,325.5 L1237,303.5 Z" id="Shape" stroke="#636467" fill="#636467" sketch:type="MSShapeGroup"></path>
                <path d="M1265.75316,0 L1088.20955,0 L1120,19.5 L1265.75316,0 Z" id="Shape" stroke="#7F7980" fill="#7F7980" sketch:type="MSShapeGroup"></path>
                <path d="M1176,238.5 L1101,253.5 L1145,325.5 L1176,238.5 Z" id="Shape" stroke="#636568" fill="#636568" sketch:type="MSShapeGroup"></path>
                <path d="M1176,238.5 L1132,195.5 L1101,253.5 L1176,238.5 Z" id="Shape" stroke="#65686B" fill="#65686B" sketch:type="MSShapeGroup"></path>
                <path d="M1169,112.5 L1064,167.5 L1132,195.5 L1169,112.5 Z" id="Shape" stroke="#6A6C6F" fill="#6A6C6F" sketch:type="MSShapeGroup"></path>
                <path d="M1169,112.5 L1048,113.5 L1064,167.5 L1169,112.5 Z" id="Shape" stroke="#6B6E71" fill="#6B6E71" sketch:type="MSShapeGroup"></path>
                <path d="M1169,112.5 L1120,19.5 L1048,113.5 L1169,112.5 Z" id="Shape" stroke="#707175" fill="#707175" sketch:type="MSShapeGroup"></path>
                <path d="M1132,195.5 L1064,167.5 L1096,197.5 L1132,195.5 Z" id="Shape" stroke="#676B6D" fill="#676B6D" sketch:type="MSShapeGroup"></path>
                <path d="M1132,195.5 L1096,197.5 L1101,253.5 L1132,195.5 Z" id="Shape" stroke="#66696C" fill="#66696C" sketch:type="MSShapeGroup"></path>
                <path d="M1145,325.5 L1071,302.5 L1138,369.5 L1145,325.5 Z" id="Shape" stroke="#606366" fill="#606366" sketch:type="MSShapeGroup"></path>
                <path d="M1145,325.5 L1101,253.5 L1071,302.5 L1145,325.5 Z" id="Shape" stroke="#616568" fill="#616568" sketch:type="MSShapeGroup"></path>
                <path d="M1138,369.5 L1071,302.5 L969,368.5 L1138,369.5 Z" id="Shape" stroke="#5E6365" fill="#5E6365" sketch:type="MSShapeGroup"></path>
                <path d="M1120,19.5 L1094,3.5 L1048,113.5 L1120,19.5 Z" id="Shape" stroke="#717276" fill="#717276" sketch:type="MSShapeGroup"></path>
                <path d="M1094,3.5 L1009,28.5 L1048,113.5 L1094,3.5 Z" id="Shape" stroke="#6E7275" fill="#6E7275" sketch:type="MSShapeGroup"></path>
                <path d="M1101,253.5 L1096,197.5 L1070,239.5 L1101,253.5 Z" id="Shape" stroke="#64696B" fill="#64696B" sketch:type="MSShapeGroup"></path>
                <path d="M1071,302.5 L1070,239.5 L1055,244.5 L1071,302.5 Z" id="Shape" stroke="#626769" fill="#626769" sketch:type="MSShapeGroup"></path>
                <path d="M1094,3.5 L1087.132,0 L1009,28.5 L1094,3.5 Z" id="Shape" stroke="#717377" fill="#717377" sketch:type="MSShapeGroup"></path>
                <path d="M1101,253.5 L1070,239.5 L1071,302.5 L1101,253.5 Z" id="Shape" stroke="#626769" fill="#626769" sketch:type="MSShapeGroup"></path>
                <path d="M1096,197.5 L1064,167.5 L1070,239.5 L1096,197.5 Z" id="Shape" stroke="#656A6D" fill="#656A6D" sketch:type="MSShapeGroup"></path>
                <path d="M1070,239.5 L1064,167.5 L1034,175.5 L1070,239.5 Z" id="Shape" stroke="#656C6D" fill="#656C6D" sketch:type="MSShapeGroup"></path>
                <path d="M1086.56494,0 L1035.94891,0 L1009,28.5 L1086.56494,0 Z" id="Shape" stroke="#717376" fill="#717376" sketch:type="MSShapeGroup"></path>
                <path d="M1070,239.5 L1034,175.5 L1055,244.5 L1070,239.5 Z" id="Shape" stroke="#646A6C" fill="#646A6C" sketch:type="MSShapeGroup"></path>
                <path d="M1071,302.5 L1055,244.5 L1030,279.5 L1071,302.5 Z" id="Shape" stroke="#616769" fill="#616769" sketch:type="MSShapeGroup"></path>
                <path d="M1071,302.5 L1030,279.5 L969,368.5 L1071,302.5 Z" id="Shape" stroke="#5F6667" fill="#5F6667" sketch:type="MSShapeGroup"></path>
                <path d="M1064,167.5 L1048,113.5 L1034,175.5 L1064,167.5 Z" id="Shape" stroke="#676E70" fill="#676E70" sketch:type="MSShapeGroup"></path>
                <path d="M1048,113.5 L1005,128.5 L1034,175.5 L1048,113.5 Z" id="Shape" stroke="#677071" fill="#677071" sketch:type="MSShapeGroup"></path>
                <path d="M1048,113.5 L1009,28.5 L1005,128.5 L1048,113.5 Z" id="Shape" stroke="#6A7273" fill="#6A7273" sketch:type="MSShapeGroup"></path>
                <path d="M1055,244.5 L1034,175.5 L986,185.5 L1055,244.5 Z" id="Shape" stroke="#646D6D" fill="#646D6D" sketch:type="MSShapeGroup"></path>
                <path d="M1036.18168,0 L1002.39187,0 L1009,28.5 L1036.18168,0 Z" id="Shape" stroke="#6F7375" fill="#6F7375" sketch:type="MSShapeGroup"></path>
                <path d="M1055,244.5 L986,185.5 L1030,279.5 L1055,244.5 Z" id="Shape" stroke="#626B6B" fill="#626B6B" sketch:type="MSShapeGroup"></path>
                <path d="M1009,28.5 L975,29.5 L1005,128.5 L1009,28.5 Z" id="Shape" stroke="#6A7374" fill="#6A7374" sketch:type="MSShapeGroup"></path>
                <path d="M1034,175.5 L1005,128.5 L986,185.5 L1034,175.5 Z" id="Shape" stroke="#657070" fill="#657070" sketch:type="MSShapeGroup"></path>
                <path d="M1030,279.5 L986,185.5 L902,257.5 L1030,279.5 Z" id="Shape" stroke="#616D6D" fill="#616D6D" sketch:type="MSShapeGroup"></path>
                <path d="M1030,279.5 L902,257.5 L969,368.5 L1030,279.5 Z" id="Shape" stroke="#5E6969" fill="#5E6969" sketch:type="MSShapeGroup"></path>
                <path d="M986,185.5 L944,184.5 L902,257.5 L986,185.5 Z" id="Shape" stroke="#627270" fill="#627270" sketch:type="MSShapeGroup"></path>
                <path d="M1009,28.5 L1001.72178,0 L975,29.5 L1009,28.5 Z" id="Shape" stroke="#6C7374" fill="#6C7374" sketch:type="MSShapeGroup"></path>
                <path d="M969,368.5 L902,257.5 L926,369.5 L969,368.5 Z" id="Shape" stroke="#5D6767" fill="#5D6767" sketch:type="MSShapeGroup"></path>
                <path d="M1005,128.5 L975,29.5 L918,127.5 L1005,128.5 Z" id="Shape" stroke="#677674" fill="#677674" sketch:type="MSShapeGroup"></path>
                <path d="M1005,128.5 L944,184.5 L986,185.5 L1005,128.5 Z" id="Shape" stroke="#647271" fill="#647271" sketch:type="MSShapeGroup"></path>
                <path d="M1005,128.5 L918,127.5 L944,184.5 L1005,128.5 Z" id="Shape" stroke="#657673" fill="#657673" sketch:type="MSShapeGroup"></path>
                <path d="M1001.83092,0 L876.398804,0 L975,29.5 L1001.83092,0 Z" id="Shape" stroke="#697474" fill="#697474" sketch:type="MSShapeGroup"></path>
                <path d="M975,29.5 L847,34.5 L918,127.5 L975,29.5 Z" id="Shape" stroke="#667D78" fill="#667D78" sketch:type="MSShapeGroup"></path>
                <path d="M975,29.5 L874.553047,0 L847,34.5 L975,29.5 Z" id="Shape" stroke="#677976" fill="#677976" sketch:type="MSShapeGroup"></path>
                <path d="M926,369.5 L902,257.5 L859,363.5 L926,369.5 Z" id="Shape" stroke="#5C6968" fill="#5C6968" sketch:type="MSShapeGroup"></path>
                <path d="M926,369.5 L859,363.5 L864,369.5 L926,369.5 Z" id="Shape" stroke="#5B6666" fill="#5B6666" sketch:type="MSShapeGroup"></path>
                <path d="M944,184.5 L918,127.5 L845,223.5 L944,184.5 Z" id="Shape" stroke="#637D77" fill="#637D77" sketch:type="MSShapeGroup"></path>
                <path d="M944,184.5 L845,223.5 L902,257.5 L944,184.5 Z" id="Shape" stroke="#617772" fill="#617772" sketch:type="MSShapeGroup"></path>
                <path d="M918,127.5 L847,34.5 L763,135.5 L918,127.5 Z" id="Shape" stroke="#68A490" fill="#68A490" sketch:type="MSShapeGroup"></path>
                <path d="M918,127.5 L763,135.5 L845,223.5 L918,127.5 Z" id="Shape" stroke="#659B8A" fill="#659B8A" sketch:type="MSShapeGroup"></path>
                <path d="M864,369.5 L859,363.5 L659,369.5 L864,369.5 Z" id="Shape" stroke="#5A6665" fill="#5A6665" sketch:type="MSShapeGroup"></path>
                <path d="M902,257.5 L845,223.5 L859,363.5 L902,257.5 Z" id="Shape" stroke="#5E706D" fill="#5E706D" sketch:type="MSShapeGroup"></path>
                <path d="M873.814745,0 L806.024454,0 L847,34.5 L873.814745,0 Z" id="Shape" stroke="#657C77" fill="#657C77" sketch:type="MSShapeGroup"></path>
                <path d="M847,34.5 L755,75.5 L763,135.5 L847,34.5 Z" id="Shape" stroke="#6BCCAA" fill="#6BCCAA" sketch:type="MSShapeGroup"></path>
                <path d="M859,363.5 L845,223.5 L731,231.5 L859,363.5 Z" id="Shape" stroke="#5D7570" fill="#5D7570" sketch:type="MSShapeGroup"></path>
                <path d="M859,363.5 L731,231.5 L697,261.5 L859,363.5 Z" id="Shape" stroke="#5C726D" fill="#5C726D" sketch:type="MSShapeGroup"></path>
                <path d="M859,363.5 L697,261.5 L659,369.5 L859,363.5 Z" id="Shape" stroke="#5A6967" fill="#5A6967" sketch:type="MSShapeGroup"></path>
                <path d="M845,223.5 L763,135.5 L731,231.5 L845,223.5 Z" id="Shape" stroke="#639787" fill="#639787" sketch:type="MSShapeGroup"></path>
                <path d="M847,34.5 L805.268784,0 L755,75.5 L847,34.5 Z" id="Shape" stroke="#648C81" fill="#648C81" sketch:type="MSShapeGroup"></path>
                <path d="M804.239699,0 L728.725729,0 L755,75.5 L804.239699,0 Z" id="Shape" stroke="#62837A" fill="#62837A" sketch:type="MSShapeGroup"></path>
                <path d="M755,75.5 L728.278651,0 L723,56.5 L755,75.5 Z" id="Shape" stroke="#628A7E" fill="#628A7E" sketch:type="MSShapeGroup"></path>
                <path d="M491,369.5 L321,344.5 L186,369.5 L491,369.5 Z" id="Shape" stroke="#525759" fill="#525759" sketch:type="MSShapeGroup"></path>
                <path d="M763,135.5 L702,154.5 L731,231.5 L763,135.5 Z" id="Shape" stroke="#629A88" fill="#629A88" sketch:type="MSShapeGroup"></path>
                <path d="M755,75.5 L723,56.5 L702,154.5 L755,75.5 Z" id="Shape" stroke="#65A892" fill="#65A892" sketch:type="MSShapeGroup"></path>
                <path d="M763,135.5 L755,75.5 L702,154.5 L763,135.5 Z" id="Shape" stroke="#69C8A7" fill="#69C8A7" sketch:type="MSShapeGroup"></path>
                <path d="M723,56.5 L660,102.5 L702,154.5 L723,56.5 Z" id="Shape" stroke="#618E80" fill="#618E80" sketch:type="MSShapeGroup"></path>
                <path d="M731,231.5 L702,154.5 L672,228.5 L731,231.5 Z" id="Shape" stroke="#5E7F76" fill="#5E7F76" sketch:type="MSShapeGroup"></path>
                <path d="M702,154.5 L680,156.5 L672,228.5 L702,154.5 Z" id="Shape" stroke="#5E8077" fill="#5E8077" sketch:type="MSShapeGroup"></path>
                <path d="M727.570632,0 L593.982864,0 L723,56.5 L727.570632,0 Z" id="Shape" stroke="#5E7771" fill="#5E7771" sketch:type="MSShapeGroup"></path>
                <path d="M731,231.5 L672,228.5 L697,261.5 L731,231.5 Z" id="Shape" stroke="#5C7670" fill="#5C7670" sketch:type="MSShapeGroup"></path>
                <path d="M723,56.5 L595,1.5 L660,102.5 L723,56.5 Z" id="Shape" stroke="#5D7872" fill="#5D7872" sketch:type="MSShapeGroup"></path>
                <path d="M702,154.5 L660,102.5 L680,156.5 L702,154.5 Z" id="Shape" stroke="#5F867B" fill="#5F867B" sketch:type="MSShapeGroup"></path>
                <path d="M697,261.5 L590,340.5 L659,369.5 L697,261.5 Z" id="Shape" stroke="#586564" fill="#586564" sketch:type="MSShapeGroup"></path>
                <path d="M697,261.5 L612,244.5 L590,340.5 L697,261.5 Z" id="Shape" stroke="#596866" fill="#596866" sketch:type="MSShapeGroup"></path>
                <path d="M697,261.5 L672,228.5 L612,244.5 L697,261.5 Z" id="Shape" stroke="#5A6F6B" fill="#5A6F6B" sketch:type="MSShapeGroup"></path>
                <path d="M612,244.5 L572,311.5 L590,340.5 L612,244.5 Z" id="Shape" stroke="#576363" fill="#576363" sketch:type="MSShapeGroup"></path>
                <path d="M672,228.5 L593,164.5 L612,244.5 L672,228.5 Z" id="Shape" stroke="#5A6E6A" fill="#5A6E6A" sketch:type="MSShapeGroup"></path>
                <path d="M680,156.5 L593,164.5 L672,228.5 L680,156.5 Z" id="Shape" stroke="#5C756F" fill="#5C756F" sketch:type="MSShapeGroup"></path>
                <path d="M680,156.5 L660,102.5 L593,164.5 L680,156.5 Z" id="Shape" stroke="#5C7871" fill="#5C7871" sketch:type="MSShapeGroup"></path>
                <path d="M659,369.5 L590,340.5 L610,369.5 L659,369.5 Z" id="Shape" stroke="#576161" fill="#576161" sketch:type="MSShapeGroup"></path>
                <path d="M660,102.5 L595,1.5 L549,56.5 L660,102.5 Z" id="Shape" stroke="#5A6D6A" fill="#5A6D6A" sketch:type="MSShapeGroup"></path>
                <path d="M610,369.5 L590,340.5 L595,354.5 L610,369.5 Z" id="Shape" stroke="#576161" fill="#576161" sketch:type="MSShapeGroup"></path>
                <path d="M660,102.5 L540,98.5 L593,164.5 L660,102.5 Z" id="Shape" stroke="#5A6D6A" fill="#5A6D6A" sketch:type="MSShapeGroup"></path>
                <path d="M660,102.5 L549,56.5 L540,98.5 L660,102.5 Z" id="Shape" stroke="#5A6B68" fill="#5A6B68" sketch:type="MSShapeGroup"></path>
                <path d="M610,369.5 L571,358.5 L537,367.5 L610,369.5 Z" id="Shape" stroke="#565F5F" fill="#565F5F" sketch:type="MSShapeGroup"></path>
                <path d="M612,244.5 L567,258.5 L572,311.5 L612,244.5 Z" id="Shape" stroke="#586564" fill="#586564" sketch:type="MSShapeGroup"></path>
                <path d="M612,244.5 L593,164.5 L567,258.5 L612,244.5 Z" id="Shape" stroke="#596866" fill="#596866" sketch:type="MSShapeGroup"></path>
                <path d="M596.594437,0 L574.004196,0 L549,56.5 L596.594437,0 Z" id="Shape" stroke="#596766" fill="#596766" sketch:type="MSShapeGroup"></path>
                <path d="M610,369.5 L595,354.5 L571,358.5 L610,369.5 Z" id="Shape" stroke="#566060" fill="#566060" sketch:type="MSShapeGroup"></path>
                <path d="M593,164.5 L516,128.5 L567,258.5 L593,164.5 Z" id="Shape" stroke="#586665" fill="#586665" sketch:type="MSShapeGroup"></path>
                <path d="M593,164.5 L540,98.5 L516,128.5 L593,164.5 Z" id="Shape" stroke="#586765" fill="#586765" sketch:type="MSShapeGroup"></path>
                <path d="M595,354.5 L584,349.5 L571,358.5 L595,354.5 Z" id="Shape" stroke="#566060" fill="#566060" sketch:type="MSShapeGroup"></path>
                <path d="M595,354.5 L590,340.5 L584,349.5 L595,354.5 Z" id="Shape" stroke="#566161" fill="#566161" sketch:type="MSShapeGroup"></path>
                <path d="M590,340.5 L572,311.5 L584,349.5 L590,340.5 Z" id="Shape" stroke="#576161" fill="#576161" sketch:type="MSShapeGroup"></path>
                <path d="M573.124122,0 L517.789348,0 L549,56.5 L573.124122,0 Z" id="Shape" stroke="#596565" fill="#596565" sketch:type="MSShapeGroup"></path>
                <path d="M584,349.5 L572,311.5 L571,358.5 L584,349.5 Z" id="Shape" stroke="#566060" fill="#566060" sketch:type="MSShapeGroup"></path>
                <path d="M572,311.5 L537,367.5 L571,358.5 L572,311.5 Z" id="Shape" stroke="#565F60" fill="#565F60" sketch:type="MSShapeGroup"></path>
                <path d="M567,258.5 L516,128.5 L410,293.5 L567,258.5 Z" id="Shape" stroke="#566060" fill="#566060" sketch:type="MSShapeGroup"></path>
                <path d="M572,311.5 L567,258.5 L491,369.5 L572,311.5 Z" id="Shape" stroke="#566060" fill="#566060" sketch:type="MSShapeGroup"></path>
                <path d="M572,311.5 L491,369.5 L537,367.5 L572,311.5 Z" id="Shape" stroke="#555E5F" fill="#555E5F" sketch:type="MSShapeGroup"></path>
                <path d="M567,258.5 L410,293.5 L491,369.5 L567,258.5 Z" id="Shape" stroke="#555D5E" fill="#555D5E" sketch:type="MSShapeGroup"></path>
                <path d="M516,128.5 L377,255.5 L410,293.5 L516,128.5 Z" id="Shape" stroke="#555C5E" fill="#555C5E" sketch:type="MSShapeGroup"></path>
                <path d="M549,56.5 L517.663612,0 L467,25.5 L549,56.5 Z" id="Shape" stroke="#586363" fill="#586363" sketch:type="MSShapeGroup"></path>
                <path d="M549,56.5 L467,25.5 L540,98.5 L549,56.5 Z" id="Shape" stroke="#586363" fill="#586363" sketch:type="MSShapeGroup"></path>
                <path d="M540,98.5 L467,25.5 L516,128.5 L540,98.5 Z" id="Shape" stroke="#576262" fill="#576262" sketch:type="MSShapeGroup"></path>
                <path d="M515.782419,0 L406.644266,0 L467,25.5 L515.782419,0 Z" id="Shape" stroke="#565D5F" fill="#565D5F" sketch:type="MSShapeGroup"></path>
                <path d="M516,128.5 L407,103.5 L377,255.5 L516,128.5 Z" id="Shape" stroke="#555D5E" fill="#555D5E" sketch:type="MSShapeGroup"></path>
                <path d="M516,128.5 L467,25.5 L407,103.5 L516,128.5 Z" id="Shape" stroke="#565F60" fill="#565F60" sketch:type="MSShapeGroup"></path>
                <path d="M404.785642,0 L391.101461,0 L399,25.5 L404.785642,0 Z" id="Shape" stroke="#555B5D" fill="#555B5D" sketch:type="MSShapeGroup"></path>
                <path d="M467,25.5 L405.714148,0 L399,25.5 L467,25.5 Z" id="Shape" stroke="#565D5E" fill="#565D5E" sketch:type="MSShapeGroup"></path>
                <path d="M491,369.5 L410,293.5 L321,344.5 L491,369.5 Z" id="Shape" stroke="#54595B" fill="#54595B" sketch:type="MSShapeGroup"></path>
                <path d="M467,25.5 L399,25.5 L407,103.5 L467,25.5 Z" id="Shape" stroke="#565D5E" fill="#565D5E" sketch:type="MSShapeGroup"></path>
                <path d="M407,103.5 L314,110.5 L377,255.5 L407,103.5 Z" id="Shape" stroke="#545A5C" fill="#545A5C" sketch:type="MSShapeGroup"></path>
                <path d="M377,255.5 L314,110.5 L302,241.5 L377,255.5 Z" id="Shape" stroke="#53585B" fill="#53585B" sketch:type="MSShapeGroup"></path>
                <path d="M399,25.5 L390.751657,0 L283.733271,0 L399,25.5 Z" id="Shape" stroke="#54595C" fill="#54595C" sketch:type="MSShapeGroup"></path>
                <path d="M407,103.5 L399,25.5 L316,53.5 L407,103.5 Z" id="Shape" stroke="#555B5C" fill="#555B5C" sketch:type="MSShapeGroup"></path>
                <path d="M407,103.5 L316,53.5 L314,110.5 L407,103.5 Z" id="Shape" stroke="#54595B" fill="#54595B" sketch:type="MSShapeGroup"></path>
                <path d="M410,293.5 L377,255.5 L314,293.5 L410,293.5 Z" id="Shape" stroke="#53595B" fill="#53595B" sketch:type="MSShapeGroup"></path>
                <path d="M410,293.5 L314,293.5 L321,344.5 L410,293.5 Z" id="Shape" stroke="#53585A" fill="#53585A" sketch:type="MSShapeGroup"></path>
                <path d="M399,25.5 L302,25.5 L316,53.5 L399,25.5 Z" id="Shape" stroke="#54595B" fill="#54595B" sketch:type="MSShapeGroup"></path>
                <path d="M399,25.5 L283.34317,0 L302,25.5 L399,25.5 Z" id="Shape" stroke="#54595B" fill="#54595B" sketch:type="MSShapeGroup"></path>
                <path d="M377,255.5 L302,241.5 L314,293.5 L377,255.5 Z" id="Shape" stroke="#53585A" fill="#53585A" sketch:type="MSShapeGroup"></path>
                <path d="M314,110.5 L210,118.5 L302,241.5 L314,110.5 Z" id="Shape" stroke="#535759" fill="#535759" sketch:type="MSShapeGroup"></path>
                <path d="M314,110.5 L234,99.5 L210,118.5 L314,110.5 Z" id="Shape" stroke="#535659" fill="#535659" sketch:type="MSShapeGroup"></path>
                <path d="M316,53.5 L269,82.5 L314,110.5 L316,53.5 Z" id="Shape" stroke="#53585A" fill="#53585A" sketch:type="MSShapeGroup"></path>
                <path d="M321,344.5 L314,293.5 L186,369.5 L321,344.5 Z" id="Shape" stroke="#525658" fill="#525658" sketch:type="MSShapeGroup"></path>
                <path d="M302,25.5 L282.609715,0 L271,11.5 L302,25.5 Z" id="Shape" stroke="#53575A" fill="#53575A" sketch:type="MSShapeGroup"></path>
                <path d="M314,110.5 L269,82.5 L234,99.5 L314,110.5 Z" id="Shape" stroke="#53575A" fill="#53575A" sketch:type="MSShapeGroup"></path>
                <path d="M316,53.5 L302,25.5 L269,82.5 L316,53.5 Z" id="Shape" stroke="#53585A" fill="#53585A" sketch:type="MSShapeGroup"></path>
                <path d="M314,293.5 L302,241.5 L186,369.5 L314,293.5 Z" id="Shape" stroke="#525658" fill="#525658" sketch:type="MSShapeGroup"></path>
                <path d="M302,241.5 L145,223.5 L186,369.5 L302,241.5 Z" id="Shape" stroke="#525558" fill="#525558" sketch:type="MSShapeGroup"></path>
                <path d="M302,241.5 L210,118.5 L166,145.5 L302,241.5 Z" id="Shape" stroke="#525658" fill="#525658" sketch:type="MSShapeGroup"></path>
                <path d="M302,241.5 L166,145.5 L145,223.5 L302,241.5 Z" id="Shape" stroke="#525558" fill="#525558" sketch:type="MSShapeGroup"></path>
                <path d="M302,25.5 L271,11.5 L269,82.5 L302,25.5 Z" id="Shape" stroke="#53575A" fill="#53575A" sketch:type="MSShapeGroup"></path>
                <path d="M281.752771,0 L261.505543,0 L271,11.5 L281.752771,0 Z" id="Shape" stroke="#535759" fill="#535759" sketch:type="MSShapeGroup"></path>
                <path d="M271.12912,11.6847305 L143.386993,0 L234,99.5 L271.12912,11.6847305 Z" id="Shape" stroke="#535659" fill="#535659" sketch:type="MSShapeGroup"></path>
                <path d="M271,11.5 L260.593155,0 L145.285919,0 L271,11.5 Z" id="Shape" stroke="#535659" fill="#535659" sketch:type="MSShapeGroup"></path>
                <path d="M271,11.5 L234,99.5 L269,82.5 L271,11.5 Z" id="Shape" stroke="#535759" fill="#535759" sketch:type="MSShapeGroup"></path>
                <path d="M234,99.5 L142.543922,0 L88,46.5 L234,99.5 Z" id="Shape" stroke="#525558" fill="#525558" sketch:type="MSShapeGroup"></path>
                <path d="M234,99.5 L88,46.5 L210,118.5 L234,99.5 Z" id="Shape" stroke="#525558" fill="#525558" sketch:type="MSShapeGroup"></path>
                <path d="M186,369.5 L145,223.5 L97,251.5 L186,369.5 Z" id="Shape" stroke="#515356" fill="#515356" sketch:type="MSShapeGroup"></path>
                <path d="M141.59285,0 L119.614983,0 L88,46.5 L141.59285,0 Z" id="Shape" stroke="#525457" fill="#525457" sketch:type="MSShapeGroup"></path>
                <path d="M210,118.5 L88,46.5 L166,145.5 L210,118.5 Z" id="Shape" stroke="#515457" fill="#515457" sketch:type="MSShapeGroup"></path>
                <path d="M186,369.5 L97,251.5 L91,367.5 L186,369.5 Z" id="Shape" stroke="#515356" fill="#515356" sketch:type="MSShapeGroup"></path>
                <path d="M119.041113,2.86102295e-06 L81.9766331,0 L88,46.5 L119.041113,2.86102295e-06 Z" id="Shape" stroke="#515357" fill="#515357" sketch:type="MSShapeGroup"></path>
                <path d="M166,145.5 L88,46.5 L78,149.5 L166,145.5 Z" id="Shape" stroke="#515357" fill="#515357" sketch:type="MSShapeGroup"></path>
                <path d="M166,145.5 L78,149.5 L145,223.5 L166,145.5 Z" id="Shape" stroke="#515457" fill="#515457" sketch:type="MSShapeGroup"></path>
                <path d="M145,223.5 L78,149.5 L48,189.5 L145,223.5 Z" id="Shape" stroke="#515356" fill="#515356" sketch:type="MSShapeGroup"></path>
                <path d="M145,223.5 L48,189.5 L97,251.5 L145,223.5 Z" id="Shape" stroke="#515356" fill="#515356" sketch:type="MSShapeGroup"></path>
                <path d="M97,251.5 L31,353.5 L91,367.5 L97,251.5 Z" id="Shape" stroke="#505255" fill="#505255" sketch:type="MSShapeGroup"></path>
                <path d="M88,46.5 L81.0771435,0 L0.967699885,0 L88,46.5 Z" id="Shape" stroke="#515256" fill="#515256" sketch:type="MSShapeGroup"></path>
                <path d="M91,367.5 L31,353.5 L0,369.5 L91,367.5 Z" id="Shape" stroke="#505155" fill="#505155" sketch:type="MSShapeGroup"></path>
                <path d="M97,251.5 L48,189.5 L0,236.5 L97,251.5 Z" id="Shape" stroke="#505255" fill="#505255" sketch:type="MSShapeGroup"></path>
                <path d="M97,251.5 L0,236.5 L31,353.5 L97,251.5 Z" id="Shape" stroke="#505255" fill="#505255" sketch:type="MSShapeGroup"></path>
                <path d="M88,46.5 L48,189.5 L78,149.5 L88,46.5 Z" id="Shape" stroke="#515356" fill="#515356" sketch:type="MSShapeGroup"></path>
                <path d="M88,46.5 L0.858083725,0 L3.55149607,10.8269175 L48,189.5 L88,46.5 Z" id="Shape" stroke="#505256" fill="#505256" sketch:type="MSShapeGroup"></path>
                <path d="M48,189.5 L0,0 L0,236.5 L48,189.5 Z" id="Shape" stroke="#505255" fill="#505255" sketch:type="MSShapeGroup"></path>
                <path d="M31,353.5 L0,236.5 L0,369.5 L31,353.5 Z" id="Shape" stroke="#505155" fill="#505155" sketch:type="MSShapeGroup"></path>
            </g>
        </g>
    </g>
</svg>