<?xml version="1.0" encoding="utf-8"?>
<!-- Generator: Adobe Illustrator 17.1.0, SVG Export Plug-In . SVG Version: 6.00 Build 0)  -->
<!DOCTYPE svg PUBLIC "-//W3C//DTD SVG 1.1//EN" "http://www.w3.org/Graphics/SVG/1.1/DTD/svg11.dtd">
<svg version="1.1" id="Слой_1" xmlns="http://www.w3.org/2000/svg" xmlns:xlink="http://www.w3.org/1999/xlink" x="0px" y="0px"
	 viewBox="0 0 595.3 841.9" enable-background="new 0 0 595.3 841.9" xml:space="preserve">
<g>
	<g>
		<polygon fill-rule="evenodd" clip-rule="evenodd" fill="#E62C2C" points="177.5,650.5 148.1,621.2 123.7,645.6 99.3,621.2
			69.9,650.5 94.3,675 94.3,675 123.7,704.3 123.7,704.3 123.7,704.3 153.1,675 153,675 		"/>
	</g>
</g>
<g>
	<g>
		<path fill-rule="evenodd" clip-rule="evenodd" fill="#E62C2C" d="M181.6,507L152,477.4l0,0l-24.6-24.6l-29.6,29.6l24.6,24.6l-24.6,24.6l29.6,29.6l24.6-24.6l0,0L181.6,507L181.6,507L181.6,507z
			 M152.2,504l-5.8-5.8l5.8-5.8l5.8,5.8L152.2,504z"/>
	</g>
</g>
<g>
	<g>
		<path fill-rule="evenodd" clip-rule="evenodd" fill="#E62C2C" d="M76.5,266.3l-24.1,24.1l0,0l-29,29l0,0l0,0l29,29l0,0l24.1,24.1
			l29-29l-24.1-24.1l24.1-24.1L76.5,266.3z M116.5,319.5l9.8,9.8l9.8-9.8l-9.8-9.8L116.5,319.5z M157.6,319.5l9.8,9.8l9.8-9.8
			l-9.8-9.8L157.6,319.5z M210.7,309.7l-9.8,9.8l9.8,9.8l9.8-9.8L210.7,309.7z"/>
	</g>
</g>
<g>
	<g>
		<polygon fill-rule="evenodd" clip-rule="evenodd" fill="#E62C2C" points="175.5,161.5 146.1,132.2 121.7,156.6 97.3,132.2
			67.9,161.5 92.3,186 92.3,186 121.7,215.3 121.7,215.3 121.7,215.3 151.1,186 151,186 		"/>
	</g>
</g>
<path fill-rule="evenodd" clip-rule="evenodd" fill="#E62C2C" d="M112.1,190.2c2.4,0,4.4,2,4.4,4.4v20.3c0,2.4-2,4.4-4.4,4.4
	c-2.4,0-4.4-2-4.4-4.4v-20.3C107.7,192.2,109.7,190.2,112.1,190.2z"/>
<g>
	<g>
		<path fill="#E62C2C" d="M134.7,189.6l0.5-0.6C135,189,134.8,189.2,134.7,189.6z M118.2,209c1.9,0,3.5,1.6,3.5,3.5v8.5
			c0,3.3,2.7,6,6,6s6-2.7,6-6v-8.5c0-1.7-0.4-19.4,1-22.9L118.2,209z M135.2,191c1.9,0,1.1,21.6,1.1,23.5c0,1.9,1.6,3.5,3.5,3.5
			c1.9,0,3.5-1.6,3.5-3.5V192c0-1.1,0.3-2.2,1-3L135.2,191z"/>
	</g>
</g>
<g>

 <path stroke="null" id="svg_3" d="m455.00662,162.20789l76.21024,0l0,41.54831l-76.21024,0l0,-41.54831z" transform="rotate(45 493.11175537109375,182.98205566406247) " stroke-linecap="null" stroke-linejoin="null" stroke-dasharray="null" stroke-width="4" fill="#E62C2C"/>
  <rect stroke="null" id="svg_12" transform="rotate(-135 516.8125,134.4999389648437) " height="8.85615" width="41.22313" y="130.07187" x="496.20091" stroke-linecap="null" stroke-linejoin="null" stroke-dasharray="null" stroke-width="4" fill="#E62C2C"/>
  <rect id="svg_15" stroke="null" transform="rotate(-45 491.5,136.90626525878903) " height="8.85615" width="40.86957" y="132.4782" x="471.06522" stroke-linecap="null" stroke-linejoin="null" stroke-dasharray="null" stroke-width="4" fill="#E62C2C"/>
  <rect id="svg_16" stroke="null" transform="rotate(-45 514.6875,159.53124999999997) " height="8.85615" width="40.86957" y="155.10318" x="494.25272" stroke-linecap="null" stroke-linejoin="null" stroke-dasharray="null" stroke-width="4" fill="#E62C2C"/>


</g>
<g>
	<polygon fill-rule="evenodd" clip-rule="evenodd" fill="#E62C2C" points="368.9,329.1 339.6,299.7 315.1,324.1 315.1,324.1
		285.8,353.5 285.8,353.5 285.8,353.5 315.1,382.9 315.1,382.8 339.6,407.3 368.9,377.9 344.5,353.5 	"/>
</g>
<rect x="279.2" y="370.1" transform="matrix(0.7071 0.7071 -0.7071 0.7071 357.6757 -117.3981)" fill-rule="evenodd" clip-rule="evenodd" fill="#FFFFFF" width="82.7" height="5.9"/>
<rect x="336.5" y="385.2" transform="matrix(0.7071 0.7071 -0.7071 0.7071 377.1834 -125.2868)" fill-rule="evenodd" clip-rule="evenodd" fill="#E62C2C" width="6.7" height="14.8"/>
<rect x="297.2" y="345.2" transform="matrix(0.7071 0.7071 -0.7071 0.7071 337.3792 -109.1896)" fill-rule="evenodd" clip-rule="evenodd" fill="#E62C2C" width="6.7" height="14.8"/>
<polygon fill="#E62C2C" points="375.7,508.3 355.7,488.3 355.8,488.3 326.1,458.7 326.1,458.7 326,458.7 296.4,488.3 296.4,488.3
	276.5,508.3 286.6,518.4 277.3,527.8 293.7,544.2 296.5,541.4 317.7,520.2 301.3,503.8 292.3,512.8 287.8,508.3 307.8,488.3
	307.7,488.2 326.1,469.9 344.4,488.2 344.4,488.3 364.3,508.3 359.8,512.8 350.7,503.8 334.3,520.2 358.3,544.2 361.1,541.4
	374.7,527.8 365.4,518.5 "/>

<g>
	<path fill-rule="evenodd" clip-rule="evenodd" fill="#E62C2C" d="M561.9,640.1l-29.3-29.3h-48.8l-29.3,29.3l24.4,24.4l0,0
		l29.3,29.3l0,0l0,0l29.3-29.3l0,0L561.9,640.1z M522.7,659.1l-10.2,10.2l-18.8-18.8l8.5-8.5l-8.5-8.5l10.2-10.2l18.8,18.8l-8.5,8.5
		L522.7,659.1z"/>
</g>
<polygon fill-rule="evenodd" clip-rule="evenodd" fill="#E62C2C" points="539.9,352.5 535.9,348.5 540.1,344.3 544.1,348.3
	548.1,344.3 544.2,340.4 548.4,336.2 552.3,340.1 556.1,336.3 552.1,332.2 556.2,328.1 560.3,332.1 564,328.4 534.6,299.1
	510.2,323.5 485.8,299.1 482.1,302.7 486,306.7 481.8,310.8 477.9,306.9 473.5,311.3 477.5,315.3 473.4,319.5 469.3,315.5
	465,319.8 468.9,323.7 464.7,327.8 460.8,324 456.4,328.4 480.8,352.8 480.8,352.9 510.2,382.2 510.2,382.2 510.2,382.2
	514.4,378.1 510.3,374 514.5,369.8 518.6,373.9 522.9,369.6 519,365.7 523.2,361.5 527.1,365.4 531.4,361 527.4,357 531.6,352.8
	535.6,356.8 539.6,352.9 539.5,352.8 "/>
<path fill="#E62C2C" d="M361.4,186.3l24.4-24.4l-29.3-29.3L332,157l-24.4-24.4l-29.3,29.3l24.4,24.4l0,0l27.6,27.6l0,0l13,13
	L330,240.2l0.3,0.3l0,0l18,18l4.9-5l-13.3-13.3l8.3-8.3l0,0l4.9-5L337,210.8L361.4,186.3L361.4,186.3z M306,169.4l-9.8-9.8l9.8-9.8
	l9.8,9.8L306,169.4z"/>



 <g>
  <title>Layer 1</title>
  <rect transform="rotate(45 302.1687622070313,641.2562255859375) " id="svg_3" height="41.5" width="45.59637" y="620.50623" x="279.37057" stroke-linecap="null" stroke-linejoin="null" stroke-dasharray="null" stroke-width="null" fill="#e62c2c"/>
  <rect transform="rotate(-45 350.533264160156,665.2457275390624) " id="svg_5" height="4.5114" width="76.16879" y="662.99005" x="312.44888" stroke-linecap="null" stroke-linejoin="null" stroke-dasharray="null" stroke-width="null" fill="#e62c2c"/>
  <rect id="svg_7" height="0.25" width="0.25" y="614.97498" x="401.45001" stroke-linecap="null" stroke-linejoin="null" stroke-dasharray="null" stroke-width="null" fill="#772323"/>
  <rect id="svg_8" transform="rotate(-45 327.98123168945307,642.6312866210938) " height="14.55808" width="76.16879" y="635.35223" x="289.89686" stroke-linecap="null" stroke-linejoin="null" stroke-dasharray="null" stroke-width="null" fill="#e62c2c"/>
  <rect id="svg_9" transform="rotate(-135 362.4996643066405,626.5503540039061) " height="4.60619" width="39.57602" y="624.24723" x="342.71168" stroke-linecap="null" stroke-linejoin="null" stroke-dasharray="null" stroke-width="null" fill="#e62c2c"/>
  <rect id="svg_10" transform="rotate(-135 312.5116271972656,678.163330078125) " height="4.03746" width="39.57602" y="676.14461" x="292.72364" stroke-linecap="null" stroke-linejoin="null" stroke-dasharray="null" stroke-width="null" fill="#e62c2c"/>
 </g>



<g>
	<g>
		<polygon fill-rule="evenodd" clip-rule="evenodd" fill="#E62C2C" points="456.4,491.6 555.1,491.6 535.1,471.6 535.2,471.5
			505.8,442.2 505.8,442.2 505.8,442.2 476.4,471.5 476.4,471.6 		"/>
	</g>
 <g>
     <g id="svg_2">
      <polygon id="svg_3" points="552.0999755859375,813.6000366210938 552.0999755859375,836.5999755859375 557.7000122070312,831 557.7000122070312,813.6000366210938 " fill="#E62C2C" clip-rule="evenodd" fill-rule="evenodd"/>
     </g>
     <g id="svg_6">
      <polygon id="svg_7" points="563.2999877929688,825.4000244140625 568.6000366210938,820.0999755859375 568.6000366210938,813.6000366210938 563.2999877929688,813.6000366210938 " fill="#E62C2C" clip-rule="evenodd" fill-rule="evenodd"/>
     </g>
     <g id="svg_8">
      <polygon id="svg_9" points="574.0999755859375,813.6000366210938 574.0999755859375,821.2999877929688 579.2999877929688,826.4000244140625 579.2999877929688,813.6000366210938 " fill="#E62C2C" clip-rule="evenodd" fill-rule="evenodd"/>
     </g>
     <g id="svg_10">
      <polygon id="svg_11" points="584.9000244140625,813.6000366210938 584.9000244140625,832 589.5,836.5999755859375 589.5,813.6000366210938 " fill="#E62C2C" clip-rule="evenodd" fill-rule="evenodd"/>
     </g>
  </g>
</g>


</svg>
